# xmcd
#
# Track frame offsets:
#	150
#	39013
#	59038
#	82350
#	102743
#	128324
#	155947
#	191305
#	210771
#	229503
#	248455
#
# Disc length: 3519 seconds
#
# Revision: 1
# Processed by: cddbd v1.5.2PL0 Copyright (c) Steve Scherf et al.
# Submitted via: audiograbber 1.83.01
#
DISCID=880dbd0b
DTITLE=Whitesnake - In The Shadow Of The Blues 2 (Live)
DYEAR=2006
DGENRE=Hard Rock
TTITLE0=Burn-Stormbringer-Born (Live)
TTITLE1=Give Me All Your Love Tonight (Live)
TTITLE2=Walking In The Shadow Of The Blues (Live)
TTITLE3=The Deeper The Love (Live)
TTITLE4=Ready An' Willing (Live)
TTITLE5=Don't Break My Heart Again (Live)
TTITLE6=Take Me With You (Live)
TTITLE7=Ready To Rock (New Studio Recording)
TTITLE8=If You Want Me (New Studio Recording)
TTITLE9=All I Want Is You (New Studio Recording)
TTITLE10=Dog (New Studio Recording)
EXTD=
EXTT0=
EXTT1=
EXTT2=
EXTT3=
EXTT4=
EXTT5=
EXTT6=
EXTT7=
EXTT8=
EXTT9=
EXTT10=
PLAYORDER=
